#N canvas 450 157 629 458 10;
#X obj 217 283 osc~;
#X obj 250 367 dac~;
#X obj 252 331 *~;
#X obj 303 110 vsl 15 128 0 127 0 0 empty empty empty 0 -9 0 10 -262144
-1 -1 0 1;
#X floatatom 302 253 5 0 0 0 - - -, f 5;
#X obj 301 274 / 127;
#X floatatom 298 299 5 0 0 0 - - -, f 5;
#X floatatom 209 217 5 0 0 0 - - -, f 5;
#X msg 206 188 440;
#X text 6 27 by aaron montoya-moraga;
#X text 7 43 april 2018;
#X obj 136 281 osc~;
#X floatatom 132 217 5 0 0 0 - - -, f 5;
#X msg 129 188 200;
#X text 6 11 01differentNotes.pd;
#X connect 0 0 2 0;
#X connect 2 0 1 0;
#X connect 2 0 1 1;
#X connect 3 0 4 0;
#X connect 4 0 5 0;
#X connect 5 0 6 0;
#X connect 6 0 2 1;
#X connect 7 0 0 0;
#X connect 8 0 7 0;
#X connect 11 0 2 0;
#X connect 12 0 11 0;
#X connect 13 0 12 0;
