#N canvas 141 45 1123 756 10;
#X obj 134 303 osc~;
#X obj 131 410 dac~;
#X obj 133 374 *~;
#X obj 244 125 vsl 15 128 0 127 0 0 empty empty empty 0 -9 0 10 -262144
-1 -1 0 1;
#X floatatom 243 263 5 0 0 0 - - -, f 5;
#X obj 242 284 / 127;
#X floatatom 239 309 5 0 0 0 - - -, f 5;
#X floatatom 128 240 5 0 0 0 - - -, f 5;
#X msg 88 152 330;
#X msg 87 176 440;
#X msg 86 200 880;
#X text 6 11 00miPrimerOsc.pd;
#X text 6 27 por aaron montoya-moraga;
#X text 5 41 version en ingles: abril 2018;
#X text 5 54 version en espanol: noviembre 2018;
#X text 282 310 Number;
#X text 165 411 Object;
#X text 165 240 Number;
#X text 171 302 Object;
#X text 165 373 Object;
#X text 285 284 Object;
#X text 285 261 Number;
#X text 34 176 Message;
#X text 34 199 Message;
#X text 37 149 Message;
#X text 266 202 Vslider;
#X text 74 302 oscilador;
#X text 126 174 frecuencias;
#X text 333 284 dividir por 127;
#X text 266 217 salida entre 0-127;
#X text 329 310 numero entre 0.0-1.0;
#X text 11 319 entradas: frec \, fase;
#X text 209 409 conversor analogo digital;
#X text 211 374 multiplicador de audio;
#X connect 0 0 2 0;
#X connect 2 0 1 0;
#X connect 2 0 1 1;
#X connect 3 0 4 0;
#X connect 4 0 5 0;
#X connect 5 0 6 0;
#X connect 6 0 2 1;
#X connect 7 0 0 0;
#X connect 8 0 7 0;
#X connect 9 0 7 0;
#X connect 10 0 7 0;
