#N canvas 141 45 1123 781 10;
#X obj 217 283 osc~;
#X obj 250 367 dac~;
#X obj 252 331 *~;
#X obj 303 110 vsl 15 128 0 127 0 0 empty empty empty 0 -9 0 10 -262144
-1 -1 0 1;
#X floatatom 302 253 5 0 0 0 - - -, f 5;
#X obj 301 274 / 127;
#X floatatom 298 299 5 0 0 0 - - -, f 5;
#X floatatom 217 260 5 0 0 0 - - -, f 5;
#X msg 217 237 440;
#X obj 175 283 osc~;
#X floatatom 175 262 5 0 0 0 - - -, f 5;
#X msg 175 240 200;
#X text 6 27 por aaron montoya-moraga;
#X text 5 41 version en ingles: abril 2018;
#X text 5 54 version en espanol: noviembre 2018;
#X text 6 11 01variasNotas.pd;
#X connect 0 0 2 0;
#X connect 2 0 1 0;
#X connect 2 0 1 1;
#X connect 3 0 4 0;
#X connect 4 0 5 0;
#X connect 5 0 6 0;
#X connect 6 0 2 1;
#X connect 7 0 0 0;
#X connect 8 0 7 0;
#X connect 9 0 2 0;
#X connect 10 0 9 0;
#X connect 11 0 10 0;
