#N canvas 30 50 1359 776 10;
#X text 17 70 inlets:;
#X text 16 145 outlets:;
#X text 18 31 input: audio;
#X text 18 47 output filtered audio;
#X text 16 162 filtered audio signal \, between -1 and 1;
#X text 16 88 incoming audio \, between -1 and 1;
#X obj 277 519 outlet~;
#X obj 63 210 inlet~;
#X text 18 14 filter~.pd;
#X obj 62 309 lop~;
#X text 94 310 low pass filter;
#X obj 242 310 hip~;
#X text 278 310 high pass filter;
#X obj 438 308 bp~, f 6;
#X text 486 307 band pass filter;
#X floatatom 454 253 5 0 0 0 - - -;
#X text 491 253 frequency;
#X obj 286 214 inlet;
#X obj 454 232 inlet;
#X text 15 122 cutoff frequency: between 0 and 20 \, 0 Hz;
#X obj 108 423 *~ 0;
#X obj 129 401 tgl 15 0 empty empty empty 17 7 0 10 -262144 -1 -1 0
1;
#X obj 130 355 sel 1;
#X msg 129 376 1;
#X msg 157 376 0;
#X obj 276 430 *~ 0;
#X obj 297 408 tgl 15 0 empty empty empty 17 7 0 10 -262144 -1 -1 0
1;
#X msg 297 383 1;
#X msg 325 383 0;
#X obj 459 433 *~ 0;
#X obj 479 414 tgl 15 0 empty empty empty 17 7 0 10 -262144 -1 -1 0
1;
#X msg 479 389 1;
#X msg 507 389 0;
#X obj 277 495 +~;
#X floatatom 286 235 5 0 0 0 - - -;
#X text 15 104 filter type: 0 for off \, 1 for low pass \, 2 for high
pass \, 3 for bandpass, f 72;
#X obj 298 362 sel 2;
#X obj 480 368 sel 3;
#X text 321 237 filter type;
#X connect 7 0 9 0;
#X connect 7 0 11 0;
#X connect 7 0 13 0;
#X connect 9 0 20 0;
#X connect 11 0 25 0;
#X connect 13 0 29 0;
#X connect 15 0 9 1;
#X connect 15 0 11 1;
#X connect 15 0 13 1;
#X connect 17 0 34 0;
#X connect 18 0 15 0;
#X connect 20 0 33 0;
#X connect 21 0 20 1;
#X connect 22 0 23 0;
#X connect 22 1 24 0;
#X connect 23 0 21 0;
#X connect 24 0 21 0;
#X connect 25 0 33 0;
#X connect 26 0 25 1;
#X connect 27 0 26 0;
#X connect 28 0 26 0;
#X connect 29 0 33 0;
#X connect 30 0 29 1;
#X connect 31 0 30 0;
#X connect 32 0 30 0;
#X connect 33 0 6 0;
#X connect 34 0 22 0;
#X connect 34 0 36 0;
#X connect 34 0 37 0;
#X connect 36 0 27 0;
#X connect 36 1 28 0;
#X connect 37 0 31 0;
#X connect 37 1 32 0;
