#N canvas 30 50 1359 776 10;
#X msg 467 82 \; pd dsp 1;
#X msg 540 82 \; pd dsp 0;
#X obj 81 418 tabwrite~ array1;
#N canvas 234 39 762 809 (subpatch) 0;
#X array array1 100 float 0;
#X coords 0 2 99 -2 200 200 1 0 0;
#X restore 259 369 graph;
#X msg 152 397 stop;
#X obj 81 371 tgl 15 0 empty empty empty 17 7 0 10 -262144 -1 -1 0
1;
#X obj 80 394 metro 500;
#X floatatom 173 164 5 0 0 0 - - -;
#X text 461 506 -1;
#X text 464 412 1;
#X text 467 458 0;
#X text 14 19 output unipolar and bipolar sine \, sawtooth \, square
waveforms;
#X text 14 34 inlets:;
#X text 12 88 outlets:;
#X text 12 53 frequency (Hz). default 0;
#X text 13 67 waveform: 0 off \, 1 bp sine \, 2 up sine \, 3 bp saw
\, 4 up saw \, 5 bp sq \, 6 up sq, f 76;
#X text 12 105 audio signal with VCO \, between -1 and 1;
#X text 465 364 2;
#X text 463 556 -2;
#X obj 21 130 inlet;
#X obj 173 143 inlet;
#X text 175 127 frequency;
#X obj 5 307 *~ 0;
#X obj 11 278 tgl 15 0 empty empty empty 17 7 0 10 -262144 -1 -1 0
1;
#X obj 76 305 *~ 0;
#X obj 90 278 tgl 15 0 empty empty empty 17 7 0 10 -262144 -1 -1 0
1;
#X msg 91 255 1;
#X msg 119 256 0;
#X obj 12 232 sel 1;
#X msg 11 253 1;
#X msg 39 253 0;
#X obj 89 235 sel 2;
#X obj 3 348 +~;
#X floatatom 21 163 5 0 0 0 - - -;
#X obj 4 411 outlet~;
#N canvas 33 50 880 751 sine-bp 0;
#X obj 6 45 outlet~;
#X obj 6 5 inlet;
#X obj 6 25 osc~;
#X connect 1 0 2 0;
#X connect 2 0 0 0;
#X restore 6 214 pd sine-bp;
#N canvas 33 50 880 776 sine-up 0;
#X obj 8 7 inlet;
#X obj 8 88 outlet~;
#X obj 8 47 *~ 0.5;
#X obj 8 67 +~ 0.5;
#X obj 8 27 osc~;
#X connect 0 0 4 0;
#X connect 2 0 3 0;
#X connect 3 0 1 0;
#X connect 4 0 2 0;
#X restore 77 216 pd sine-up;
#N canvas 63 23 880 826 saw-bp 0;
#X obj 6 6 inlet;
#X obj 6 82 outlet~;
#X obj 6 26 phasor~;
#X obj 6 45 *~ 2;
#X obj 6 63 -~ 1;
#X connect 0 0 2 0;
#X connect 2 0 3 0;
#X connect 3 0 4 0;
#X connect 4 0 1 0;
#X restore 173 219 pd saw-bp;
#X obj 177 309 *~ 0;
#X obj 196 289 tgl 15 0 empty empty empty 17 7 0 10 -262144 -1 -1 0
1;
#X msg 197 267 1;
#X msg 225 267 0;
#X obj 197 247 sel 3;
#X obj 268 305 *~ 0;
#X obj 289 285 tgl 15 0 empty empty empty 17 7 0 10 -262144 -1 -1 0
1;
#X msg 290 262 1;
#X msg 318 262 0;
#X obj 291 241 sel 4;
#N canvas 63 23 880 830 saw-up 0;
#X obj 16 13 inlet;
#X obj 16 52 outlet~;
#X obj 16 33 phasor~;
#X connect 0 0 2 0;
#X connect 2 0 1 0;
#X restore 267 219 pd saw-up;
#N canvas 63 23 880 855 sq-bp 0;
#X obj 9 7 inlet;
#X obj 7 99 outlet~;
#X obj 9 26 osc~;
#X obj 8 44 expr~ $v1 > 0;
#X obj 7 80 -~ 1;
#X obj 8 62 *~ 2;
#X connect 0 0 2 0;
#X connect 2 0 3 0;
#X connect 3 0 5 0;
#X connect 4 0 1 0;
#X connect 5 0 4 0;
#X restore 380 221 pd sq-bp;
#N canvas 63 23 880 855 sq-up 0;
#X obj 9 6 inlet;
#X obj 9 63 outlet~;
#X obj 9 25 osc~;
#X obj 9 44 expr~ $v1 > 0;
#X connect 0 0 2 0;
#X connect 2 0 3 0;
#X connect 3 0 1 0;
#X restore 473 218 pd sq-up;
#X obj 380 303 *~ 0;
#X obj 401 286 tgl 15 0 empty empty empty 17 7 0 10 -262144 -1 -1 0
1;
#X msg 402 262 1;
#X msg 430 262 0;
#X obj 403 241 sel 5;
#X obj 473 303 *~ 0;
#X obj 494 284 tgl 15 0 empty empty empty 17 7 0 10 -262144 -1 -1 0
1;
#X msg 495 260 1;
#X msg 523 260 0;
#X obj 496 239 sel 6;
#X text 16 0 oscillator~.pd;
#X connect 4 0 2 0;
#X connect 5 0 6 0;
#X connect 6 0 2 0;
#X connect 7 0 36 0;
#X connect 7 0 35 0;
#X connect 7 0 37 0;
#X connect 7 0 48 0;
#X connect 7 0 49 0;
#X connect 7 0 50 0;
#X connect 19 0 33 0;
#X connect 20 0 7 0;
#X connect 22 0 32 0;
#X connect 23 0 22 1;
#X connect 24 0 32 0;
#X connect 25 0 24 1;
#X connect 26 0 25 0;
#X connect 27 0 25 0;
#X connect 28 0 29 0;
#X connect 28 1 30 0;
#X connect 29 0 23 0;
#X connect 30 0 23 0;
#X connect 31 0 26 0;
#X connect 31 1 27 0;
#X connect 32 0 2 0;
#X connect 32 0 34 0;
#X connect 33 0 31 0;
#X connect 33 0 28 0;
#X connect 33 0 42 0;
#X connect 33 0 47 0;
#X connect 33 0 55 0;
#X connect 33 0 60 0;
#X connect 35 0 22 0;
#X connect 36 0 24 0;
#X connect 37 0 38 0;
#X connect 38 0 32 0;
#X connect 39 0 38 1;
#X connect 40 0 39 0;
#X connect 41 0 39 0;
#X connect 42 0 40 0;
#X connect 42 1 41 0;
#X connect 43 0 32 0;
#X connect 44 0 43 1;
#X connect 45 0 44 0;
#X connect 46 0 44 0;
#X connect 47 0 45 0;
#X connect 47 1 46 0;
#X connect 48 0 43 0;
#X connect 49 0 51 0;
#X connect 50 0 56 0;
#X connect 51 0 32 0;
#X connect 52 0 51 1;
#X connect 53 0 52 0;
#X connect 54 0 52 0;
#X connect 55 0 53 0;
#X connect 55 1 54 0;
#X connect 56 0 32 0;
#X connect 57 0 56 1;
#X connect 58 0 57 0;
#X connect 59 0 57 0;
#X connect 60 0 58 0;
#X connect 60 1 59 0;
