#N canvas 128 23 1016 855 10;
#X obj 71 673 dac~;
#X obj 72 649 *~ 0;
#X obj 146 481 vsl 15 128 0 127 0 0 empty empty empty 0 -9 0 10 -262144
-1 -1 12700 1;
#X obj 146 617 / 127;
#X floatatom 146 640 5 0 0 0 - - -;
#X floatatom 136 187 5 0 0 0 - - -;
#X msg 60 8 0;
#X msg 60 31 1;
#X msg 61 54 2;
#X msg 61 76 3;
#X floatatom 58 187 5 0 0 0 - - -;
#X msg 63 98 4;
#X msg 64 121 5;
#X msg 64 145 6;
#X obj 79 207 oscillator~;
#X obj 66 373 filter~;
#X msg 99 260 0;
#X msg 99 283 1;
#X msg 100 306 2;
#X msg 100 330 3;
#X floatatom 87 350 5 0 0 0 - - -;
#X floatatom 123 349 5 0 0 0 - - -;
#X obj 66 483 amplifier~;
#X text 131 259 off;
#X text 126 283 low pass filter;
#X text 128 305 high pass filter;
#X text 127 328 band pass filter;
#X text 94 8 off;
#X text 89 32 sine bipolar;
#X text 91 54 sine unipolar;
#X text 88 77 saw bipolar;
#X text 90 99 saw unipolar;
#X text 94 122 square bipolar;
#X text 96 144 square unipolar;
#X obj 94 456 tgl 15 0 empty empty empty 17 7 0 10 -262144 -1 -1 0
1;
#X text 96 440 gate;
#X obj 129 454 pack 0 0 0 0, f 19;
#X floatatom 156 395 5 0 0 0 - - -;
#X floatatom 166 421 5 0 0 0 - - -;
#X floatatom 203 420 5 0 0 0 - - -;
#X floatatom 240 420 5 0 0 0 - - -;
#X obj 129 395 bng 15 250 50 0 empty empty empty 17 7 0 10 -262144
-1 -1;
#X obj 129 421 float;
#X text 125 378 send values;
#X text 188 393 attack;
#X text 170 433 decay;
#X text 204 432 sustain;
#X text 254 432 release;
#X text 157 349 cutoff frequency;
#X obj 237 127 loadbang;
#X msg 239 150 440;
#X obj 184 242 loadbang;
#X msg 257 283 10000;
#X obj 313 327 loadbang;
#X msg 313 363 100;
#X msg 348 361 100;
#X msg 386 361 0.8;
#X msg 424 362 1000;
#X obj 255 525 loadbang;
#X msg 261 573 127;
#X obj 379 92 metro 1000;
#X obj 379 117 bng 15 250 50 0 empty empty empty 17 7 0 10 -262144
-1 -1;
#X obj 380 34 tgl 15 0 empty empty empty 17 7 0 10 -262144 -1 -1 0
1;
#X text 397 35 TURN ME ON FOR HEARING SOUND;
#X msg 218 12 loadbang;
#X floatatom 436 72 5 0 0 0 - - -;
#X obj 215 35 bng 15 250 50 0 empty empty empty 17 7 0 10 -262144 -1
-1;
#X connect 1 0 0 0;
#X connect 1 0 0 1;
#X connect 2 0 3 0;
#X connect 3 0 4 0;
#X connect 4 0 1 1;
#X connect 5 0 14 1;
#X connect 6 0 10 0;
#X connect 7 0 10 0;
#X connect 8 0 10 0;
#X connect 9 0 10 0;
#X connect 10 0 14 0;
#X connect 11 0 10 0;
#X connect 12 0 10 0;
#X connect 13 0 10 0;
#X connect 14 0 15 0;
#X connect 15 0 22 0;
#X connect 16 0 20 0;
#X connect 17 0 20 0;
#X connect 18 0 20 0;
#X connect 19 0 20 0;
#X connect 20 0 15 1;
#X connect 21 0 15 2;
#X connect 22 0 1 0;
#X connect 34 0 22 1;
#X connect 36 0 22 2;
#X connect 37 0 42 1;
#X connect 38 0 36 1;
#X connect 39 0 36 2;
#X connect 40 0 36 3;
#X connect 41 0 42 0;
#X connect 42 0 36 0;
#X connect 49 0 50 0;
#X connect 50 0 5 0;
#X connect 51 0 17 0;
#X connect 51 0 52 0;
#X connect 52 0 21 0;
#X connect 53 0 54 0;
#X connect 53 0 55 0;
#X connect 53 0 56 0;
#X connect 53 0 57 0;
#X connect 54 0 37 0;
#X connect 55 0 38 0;
#X connect 56 0 39 0;
#X connect 57 0 40 0;
#X connect 58 0 59 0;
#X connect 59 0 2 0;
#X connect 60 0 61 0;
#X connect 61 0 34 0;
#X connect 62 0 60 0;
#X connect 64 0 66 0;
#X connect 65 0 60 1;
#X connect 66 0 9 0;
