#N canvas 30 23 1359 830 10;
#X obj 154 304 metro 500;
#X obj 154 282 tgl 15 0 empty empty empty 17 7 0 10 -262144 -1 -1 1
1;
#X obj 154 327 bng 15 250 50 0 empty empty empty 17 7 0 10 -262144
-1 -1;
#X obj 909 204 tgl 15 0 empty empty empty 17 7 0 10 -262144 -1 -1 0
1;
#X obj 909 226 metro 500;
#X obj 909 249 bng 15 250 50 0 empty empty empty 17 7 0 10 -262144
-1 -1;
#X floatatom 1002 129 5 0 0 0 - - -;
#X text 1036 162 max step;
#X obj 953 259 random 10;
#X msg 1002 151 10;
#X obj 1002 106 loadbang;
#X floatatom 953 315 5 0 0 0 - - -;
#X obj 1002 174 * 2;
#X obj 1002 197 + 1;
#X floatatom 1002 242 5 0 0 0 - - -;
#X floatatom 1002 220 5 0 0 0 - - -;
#X obj 953 315 - 0;
#X floatatom 953 338 5 0 0 0 - - -;
#X text 1036 182 positive and negative;
#X text 1036 202 add zero option;
#X text 1040 258 possible options;
#X floatatom 959 208 5 0 0 0 - - -;
#X msg 959 185 500;
#X text 1003 337 value to add to current position;
#X obj 154 259 inlet;
#X obj 223 617 outlet;
#X text 15 13 sequencer.pd;
#X text 15 33 inlets:;
#X text 13 144 outlets:;
#X text 15 53 toggle \, turn sequencer on/off;
#X obj 205 259 inlet;
#X floatatom 205 282 5 0 0 0 - - -;
#X obj 415 170 vsl 15 128 0 127 0 0 empty empty empty 0 -9 0 10 -262144
-1 -1 6300 1;
#X obj 415 308 / 127;
#X obj 418 395 *;
#X floatatom 418 418 5 0 0 0 - - -;
#X obj 258 49 loadbang;
#X msg 251 259 500;
#X floatatom 415 331 5 0 0 0 - - -;
#X obj 418 395 t b f;
#X obj 415 145 inlet;
#X obj 258 72 bng 15 250 50 0 empty empty empty 17 7 0 10 -262144 -1
-1;
#X text 279 66 intitial conditions;
#X floatatom 416 315 5 0 0 0 - - -;
#X msg 382 145 63;
#X msg 166 395 1;
#X msg 205 383 0;
#X floatatom 184 456 5 0 0 0 - - -;
#X obj 205 338 delay;
#X obj 205 361 bng 15 250 50 0 empty empty empty 17 7 0 10 -262144
-1 -1;
#X obj 184 478 tgl 15 0 empty empty empty 17 7 0 10 -262144 -1 -1 1
1;
#X text 206 477 gate on/off;
#X text 15 91 number: duty cycle (0-127);
#X text 15 73 number: metro time (ms);
#X connect 0 0 2 0;
#X connect 1 0 0 0;
#X connect 2 0 45 0;
#X connect 2 0 48 0;
#X connect 3 0 4 0;
#X connect 4 0 5 0;
#X connect 5 0 8 0;
#X connect 6 0 12 0;
#X connect 6 0 16 1;
#X connect 8 0 11 0;
#X connect 9 0 6 0;
#X connect 10 0 9 0;
#X connect 10 0 22 0;
#X connect 11 0 16 0;
#X connect 12 0 15 0;
#X connect 13 0 14 0;
#X connect 14 0 8 1;
#X connect 15 0 13 0;
#X connect 16 0 17 0;
#X connect 21 0 4 1;
#X connect 22 0 21 0;
#X connect 24 0 1 0;
#X connect 30 0 31 0;
#X connect 31 0 0 1;
#X connect 31 0 34 0;
#X connect 32 0 43 0;
#X connect 33 0 38 0;
#X connect 34 0 35 0;
#X connect 35 0 48 1;
#X connect 36 0 41 0;
#X connect 37 0 31 0;
#X connect 38 0 39 0;
#X connect 39 0 34 0;
#X connect 39 1 34 1;
#X connect 40 0 32 0;
#X connect 41 0 37 0;
#X connect 41 0 44 0;
#X connect 43 0 33 0;
#X connect 44 0 32 0;
#X connect 45 0 47 0;
#X connect 46 0 47 0;
#X connect 47 0 50 0;
#X connect 48 0 49 0;
#X connect 49 0 46 0;
